<svg id="SvgjsSvg1015" xmlns="http://www.w3.org/2000/svg" version="1.1" xmlns:xlink="http://www.w3.org/1999/xlink" xmlns:svgjs="http://svgjs.com/svgjs" width="79" height="79" viewBox="0 0 79 79"><title>Circle</title><desc>Created with Avocode.</desc><defs id="SvgjsDefs1016"></defs><path id="SvgjsPath1017" d="M1213 3419C1213 3397.46089 1230.46089 3380 1252 3380C1273.53911 3380 1291 3397.46089 1291 3419C1291 3440.53911 1273.53911 3458 1252 3458C1230.46089 3458 1213 3440.53911 1213 3419Z " fill-opacity="0" fill="#ffffff" stroke-dashoffset="0" stroke-linejoin="miter" stroke-linecap="butt" stroke-opacity="1" stroke="#e2e2e2" stroke-miterlimit="50" stroke-width="1" transform="matrix(1,0,0,1,-1212.5,-3379.5)"></path><path id="SvgjsPath1018" d="M1267.47 3419.48H1266.24258L1254.44 3431.11C1254.3500000000001 3431.2000000000003 1254.3 3431.33 1254.3 3431.46C1254.3 3431.59 1254.35 3431.7200000000003 1254.44 3431.81C1254.54 3431.9 1254.67 3431.96 1254.8 3431.96C1254.93 3431.96 1255.06 3431.91 1255.1599999999999 3431.81L1267.83 3419.33C1267.9199999999998 3419.24 1267.97 3419.11 1267.97 3418.98C1267.97 3419.25 1267.74 3419.48 1267.47 3419.48ZM1235.5 3419.48C1235.22 3419.48 1235 3419.25 1235 3418.98C1235 3418.7 1235.22 3418.48 1235.5 3418.48H1266.24258L1266.75 3418.98L1266.24258 3419.48ZM1267.47 3418.48C1267.74 3418.48 1267.97 3418.7 1267.97 3418.98C1267.97 3418.85 1267.92 3418.72 1267.83 3418.63L1255.1599999999999 3406.15C1254.9599999999998 3405.9500000000003 1254.6399999999999 3405.9500000000003 1254.4399999999998 3406.15C1254.35 3406.2400000000002 1254.2899999999997 3406.37 1254.2899999999997 3406.5C1254.2899999999997 3406.63 1254.3499999999997 3406.76 1254.4399999999998 3406.85L1266.2425799999999 3418.48Z " fill="#ffffff" fill-opacity="1" transform="matrix(1,0,0,1,-1212.5,-3379.5)"></path></svg>