<svg xmlns="http://www.w3.org/2000/svg" width="79" height="79" viewBox="0 0 79 79"><title>Circle</title><path d="M.5 39.5c0-21.54 17.46-39 39-39s39 17.46 39 39-17.46 39-39 39-39-17.46-39-39z" fill="none" stroke="#e2e2e2" stroke-miterlimit="50"/><path d="M24 39.98h1.227L37.03 51.61c.09.09.15.22.15.35a.51.51 0 0 1-.51.5.47.47 0 0 1-.35-.15L23.684 39.863a.495.495 0 0 0 .316.117zm31.97 0c.28 0 .5-.23.5-.5 0-.28-.22-.5-.5-.5H25.227l-.507.5.507.5zm-31.97-1a.499.499 0 0 0-.3.1l12.62-12.43c.2-.2.51-.2.71 0 .1.09.15.22.15.35 0 .13-.05.26-.15.35L25.227 38.98zm-.35.85a.523.523 0 0 0 .034.033zm0-.7l.05-.05a.503.503 0 0 0-.16.204.443.443 0 0 1 .11-.154zm-.11.154zm-.036.135zm-.004.061z" fill="#fff"/></svg>