<svg id="SvgjsSvg1019" xmlns="http://www.w3.org/2000/svg" version="1.1" xmlns:xlink="http://www.w3.org/1999/xlink" xmlns:svgjs="http://svgjs.com/svgjs" width="99" height="82" viewBox="0 0 99 82"><title>quotes</title><desc>Created with Avocode.</desc><defs id="SvgjsDefs1020"></defs><path id="SvgjsPath1021" d="M765.63 3273.78C760.37 3292.46 747.41 3306.02 734.8 3306.02C733.79 3306.02 732.79 3305.93 731.79 3305.7599999999998C731.24 3305.66 730.75 3305.33 730.4399999999999 3304.8599999999997C730.14 3304.3799999999997 730.06 3303.7999999999997 730.2099999999999 3303.2599999999998L732.8 3294.04C733.06 3293.15 733.89 3292.56 734.8199999999999 3292.59H735.02C739.6999999999999 3292.59 748.24 3285.63 752.59 3270.1600000000003C752.77 3269.55 752.9300000000001 3268.9200000000005 753.09 3268.2700000000004C748.11 3270.6900000000005 742.4300000000001 3271.2200000000003 737.09 3269.76C725.24 3266.42 718.33 3254.11 721.6700000000001 3242.26C725.0100000000001 3230.4100000000003 737.32 3223.5 749.1700000000001 3226.84C757.0300000000001 3229.02 762.94 3235.5 765.8100000000001 3245.08C768.3900000000001 3253.72 768.33 3264.19 765.6300000000001 3273.7799999999997ZM713.67 3273.78C716.38 3264.19 716.4399999999999 3253.7200000000003 713.8499999999999 3245.0800000000004C710.9799999999999 3235.5000000000005 705.0699999999999 3229.0200000000004 697.2199999999999 3226.8400000000006C685.3899999999999 3223.5900000000006 673.16 3230.4900000000007 669.8399999999999 3242.2900000000004C666.5199999999999 3254.1000000000004 673.3499999999999 3266.3700000000003 685.1299999999999 3269.76C690.4699999999999 3271.2200000000003 696.1499999999999 3270.69 701.1299999999999 3268.2700000000004C700.9799999999999 3268.9200000000005 700.8099999999998 3269.5500000000006 700.6399999999999 3270.1600000000003C696.2799999999999 3285.63 687.7399999999999 3292.59 683.0599999999998 3292.59H682.8599999999998C681.9399999999998 3292.55 681.1099999999998 3293.15 680.8499999999998 3294.04L678.2499999999998 3303.2599999999998C678.0999999999998 3303.7999999999997 678.1799999999997 3304.3799999999997 678.4799999999998 3304.8599999999997C678.7899999999997 3305.3299999999995 679.2799999999997 3305.66 679.8299999999998 3305.7599999999998C680.8299999999998 3305.93 681.8299999999998 3306.0099999999998 682.8399999999998 3306.0099999999998C695.4499999999998 3306.0099999999998 708.4099999999999 3292.4599999999996 713.6699999999998 3273.7799999999997Z " fill="#ffffff" fill-opacity="1" transform="matrix(1,0,0,1,-669,-3225)"></path></svg>